<?xml version="1.0" encoding="utf-8"?>
<!-- Generator: Adobe Illustrator 21.1.0, SVG Export Plug-In . SVG Version: 6.00 Build 0)  -->
<!DOCTYPE svg PUBLIC "-//W3C//DTD SVG 1.1//EN" "http://www.w3.org/Graphics/SVG/1.1/DTD/svg11.dtd">
<svg version="1.1" id="otsukai_logo" xmlns="http://www.w3.org/2000/svg" xmlns:xlink="http://www.w3.org/1999/xlink" x="0px"
	 y="0px" viewBox="0 0 182 44" style="enable-background:new 0 0 182 44;" xml:space="preserve">
<style type="text/css">
	.st0{fill:#CCCCCC;}
	.st1{fill:none;stroke:#CCCCCC;stroke-width:2;stroke-miterlimit:10;}
	.st2{fill:#8D8D8D;}
	.st3{fill:url(#SVGID_1_);}
	.st4{fill:url(#SVGID_2_);}
	.st5{fill:url(#SVGID_3_);}
	.st6{fill:url(#SVGID_4_);}
	.st7{fill:url(#SVGID_5_);}
	.st8{fill:url(#SVGID_6_);}
	.st9{fill:#DE4B6D;}
	.st10{fill:url(#SVGID_7_);}
	.st11{fill:url(#SVGID_8_);}
</style>
<g>
	<g>
		<linearGradient id="SVGID_1_" gradientUnits="userSpaceOnUse" x1="-0.5048" y1="26.7647" x2="179.4568" y2="-11.3209">
			<stop  offset="0" style="stop-color:#DE4B6D"/>
			<stop  offset="1" style="stop-color:#F3AF2B"/>
		</linearGradient>
		<path class="st3" d="M22,44C9.9,44,0,34.1,0,22S9.9,0,22,0s22,9.9,22,22S34.1,44,22,44z M22,7.7C14.1,7.7,7.7,14.1,7.7,22
			S14.1,36.3,22,36.3S36.3,29.9,36.3,22S29.9,7.7,22,7.7z"/>
	</g>
	<linearGradient id="SVGID_2_" gradientUnits="userSpaceOnUse" x1="3.7713" y1="46.9812" x2="183.7362" y2="8.895">
		<stop  offset="0" style="stop-color:#DE4B6D"/>
		<stop  offset="1" style="stop-color:#F3AF2B"/>
	</linearGradient>
	<circle class="st4" cx="177.8" cy="10.2" r="4.2"/>
	<linearGradient id="SVGID_3_" gradientUnits="userSpaceOnUse" x1="1.7786" y1="37.5304" x2="181.7281" y2="-0.5526">
		<stop  offset="0" style="stop-color:#DE4B6D"/>
		<stop  offset="1" style="stop-color:#F3AF2B"/>
	</linearGradient>
	<path class="st5" d="M60.5,36.4c-0.1,0-2.2,0-2.2,0c-0.7,0-1.6-0.7-1.6-1.6V23.7c0,0,3.7,0,3.8,0c2.1,0,3.8-1.7,3.8-3.8
		c0-2.1-1.7-3.8-3.8-3.8h-3.8v-3.3c0-2.4-1.9-4.3-4.3-4.3h-2.5c-2.3,0-4.2,1.9-4.2,4.2c0,2,1.5,3.8,3.4,4.1v18c0,6,4.7,9.2,9.3,9.2
		c0,0,2.5,0,2.6-0.1c1.9-0.3,3.3-1.8,3.3-3.8C64.3,38.1,62.6,36.4,60.5,36.4z"/>
	<linearGradient id="SVGID_4_" gradientUnits="userSpaceOnUse" x1="3.449" y1="45.4161" x2="183.3994" y2="7.3329">
		<stop  offset="0" style="stop-color:#DE4B6D"/>
		<stop  offset="1" style="stop-color:#F3AF2B"/>
	</linearGradient>
	<path class="st6" d="M77.9,26.2c-1.7,0-2.5-0.8-2.5-1.7s0.8-1.7,2.5-1.7h6.8c0.8,0,1.3-0.2,1.7-0.4c1.2-0.6,2.1-1.9,2.1-3.4
		c0-2.1-1.7-3.8-3.8-3.8H77c-6.1,0-9.3,4.7-9.3,9.3c0,5.6,4.1,9.3,10.2,9.3c1.5,0,3.4-0.4,3.4,1.3c0,1.3-2.2,1.3-3.4,1.3
		c0,0-6.3,0-6.3,0c-2.1,0-3.8,1.7-3.8,3.8c0,2.1,1.7,3.7,3.7,3.8c0,0,0,0,0,0h7.3c6.2,0,10.2-3.3,10.2-8.5
		C88.9,30.1,83.9,26.2,77.9,26.2z"/>
	<linearGradient id="SVGID_5_" gradientUnits="userSpaceOnUse" x1="4.2181" y1="49.0353" x2="184.1699" y2="10.9518">
		<stop  offset="0" style="stop-color:#DE4B6D"/>
		<stop  offset="1" style="stop-color:#F3AF2B"/>
	</linearGradient>
	<path class="st7" d="M138.4,36.8l-6.5-6.6c-0.2-0.2-0.2-0.4,0-0.6l6.4-6.3c1.3-1.3,2.2-1.9,2.2-3.4c0-2.1-1.7-3.8-3.8-3.8
		c-1.4,0-2.1,0.8-3.3,1.9l-6.6,6c-0.3,0.3-0.7,0.1-0.7-0.3V6c0-2.4-1.9-4.3-4.3-4.3h-1.6c-0.2,0-0.3,0-0.4,0c-0.1,0-0.3,0-0.4,0
		c-2.3,0-4.2,1.9-4.2,4.2c0,2,1.5,3.8,3.4,4.1v30.5c0,0,0,0.1,0.1,0.1c0.3,1.8,1.8,3.3,3.8,3.3c2.1,0,3.8-1.7,3.8-3.8
		c0-0.1,0-0.2,0-0.4c0,0,0,0,0-0.1c0-0.8,0-0.4,0-1.3v-2.1c0-0.4,0.5-0.6,0.7-0.3l7.3,7.3c0.5,0.6,2.2,0.6,3,0.6
		c1.9-0.2,3.4-1.8,3.4-3.8C140.5,38.7,139.7,38.1,138.4,36.8z"/>
	<linearGradient id="SVGID_6_" gradientUnits="userSpaceOnUse" x1="4.39" y1="49.8638" x2="184.3441" y2="11.7798">
		<stop  offset="0" style="stop-color:#DE4B6D"/>
		<stop  offset="1" style="stop-color:#F3AF2B"/>
	</linearGradient>
	<path class="st8" d="M110,15.2c0,0-2.3,0-2.5,0c-2.3,0-4.2,1.9-4.2,4.2c0,2,1.5,3.8,3.4,4.1v8.5c0,3.7-1.6,4.2-3.4,4.2
		c-1.8,0-3.4-0.5-3.4-4.2V18.9c0-2-1.6-3.6-3.6-3.6c0,0-0.1,0-0.2,0c-2.1,0-3.8,1.7-3.8,3.8c0,0,0,14,0,14c0,7.1,5.7,11,11,11
		s11-3.9,11-11V19.5C114.3,17.1,112.4,15.2,110,15.2z"/>
	<linearGradient id="SVGID_7_" gradientUnits="userSpaceOnUse" x1="7.7374" y1="65.7042" x2="187.7003" y2="27.6183">
		<stop  offset="0" style="stop-color:#DE4B6D"/>
		<stop  offset="1" style="stop-color:#F3AF2B"/>
	</linearGradient>
	<path class="st10" d="M177.3,16.1c0,0-2.8,0-2.9,0c-2.3,0-4.2,1.9-4.2,4.2c0,2.3,1.9,4.2,4.2,4.2v15.7c0,2.1,1.7,3.8,3.8,3.8
		c2.1,0,3.8-1.7,3.8-3.8V20.8C182,18.2,179.9,16.1,177.3,16.1z"/>
	<linearGradient id="SVGID_8_" gradientUnits="userSpaceOnUse" x1="7.0415" y1="62.3914" x2="186.9988" y2="24.3067">
		<stop  offset="0" style="stop-color:#DE4B6D"/>
		<stop  offset="1" style="stop-color:#F3AF2B"/>
	</linearGradient>
	<path class="st11" d="M166.8,35.9V21.6c0-3.1-2.5-5.5-5.5-5.5v0c-0.3,0-2.9,0-5.5,0c-7.5,0-13.4,6-13.4,13.7
		c0,7.9,6,14.2,13.4,14.2h9.3c2.3,0,4.2-1.9,4.2-4.2C169.3,38,168.3,36.5,166.8,35.9z M159.1,36.4h-2.5c-3.8,0-6.5-2.7-6.5-6.6
		c0-3.9,3.4-6.1,6.5-6.1h2.5V36.4z"/>
</g>
</svg>
